<svg xmlns="http://www.w3.org/2000/svg" id="cr_logo_noTagline" viewBox="0 0 96 18"> <title>cr_logo_noTagline</title> <path fill="#f47521" d="M94.1,14V3.2H96V14Z"/> <path fill="#f47521" d="M90,14V3.2h1.9V14Z"/> <path fill="#f47521" d="M88.4,10.1c0,2.6-1.3,4-3.7,4s-3.7-1.4-3.7-4,1.3-4,3.7-4S88.4,7.5,88.4,10.1Zm-1.8,0c0-2.1-.7-2.5-1.8-2.5S83,8,83,10.1s.7,2.5,1.8,2.5C85.8,12.6,86.6,12.2,86.6,10.1Z"/><path fill="#f47521" d="M80.2,6.1V7.7c-1,0-2.2,0-2.2.5V14H76.1V7.1C76.2,5.9,80.2,6.1,80.2,6.1Z"/> <path fill="#f47521" d="M68.8,17.1c1.4-3.5,1.3-3.2,1.4-3.5L67.4,6.2h2l1.8,5.4,1.7-5.4h2l-3,8-1.1,2.9Z"/> <path fill="#f47521" d="M66.3,9.3V14H64.4V9.2c0-.7-.2-1.4-1.9-1.4a5.067,5.067,0,0,0-1.3.2v6H59.3V3.2h1.9V6.3A3.808,3.808,0,0,1,62.8,6C65.1,6.1,66.3,7.3,66.3,9.3Z"/> <path fill="#f47521" d="M55.8,12.5a6.465,6.465,0,0,0,2-.4v1.6a5.558,5.558,0,0,1-2.3.4c-2.4,0-3.7-1.4-3.7-4S53.1,6,55.5,6a8.519,8.519,0,0,1,2.3.4V8a5.917,5.917,0,0,0-2-.4c-1.3,0-2.1.4-2.1,2.4C53.7,12.1,54.5,12.5,55.8,12.5Z"/> <path fill="#f47521" d="M50.6,9.1V14H48.8V9.1c0-.7,0-1.4-1.6-1.4-.5,0-1.5.1-1.5.4V14H43.9V7.5c0-1.3,1.6-1.5,3.6-1.5C49.5,6.1,50.6,6.9,50.6,9.1Z"/> <path fill="#f47521" d="M42.1,6.2v4.3c0,2.3-.8,3.7-3.5,3.7s-3.4-1.4-3.4-3.7V6.2H37v4.5c0,1.3.5,1.7,1.6,1.7s1.6-.4,1.6-1.7V6.2Z"/> <path fill="#f47521" d="M33.7,6.1V7.7c-1,0-2.2,0-2.2.5V14H29.6V7.1C29.7,5.9,33.7,6.1,33.7,6.1Z"/> <path fill="#f47521" d="M25.9,12.5a5.33,5.33,0,0,0,1.9-.4v1.6a5.558,5.558,0,0,1-2.3.4c-2.4,0-3.7-1.4-3.7-4S23.1,6,25.5,6a8.519,8.519,0,0,1,2.3.4V8a5.847,5.847,0,0,0-1.9-.4c-1.3,0-2.1.4-2.1,2.4C23.7,12.1,24.6,12.5,25.9,12.5Z"/> <path fill="#f47521" d="M2.2,10.1A7.912,7.912,0,0,1,18,9.5V9a9,9,0,1,0-9,9h.6A7.963,7.963,0,0,1,2.2,10.1Z"/> <path fill="#f47521" d="M14.4,10.5a2.887,2.887,0,0,1-1-5.6,5.918,5.918,0,0,0-2.9-.7,6.3,6.3,0,1,0,6.3,6.3,4.869,4.869,0,0,0-.1-1.2A2.561,2.561,0,0,1,14.4,10.5Z"/> </svg>