<svg xmlns="http://www.w3.org/2000/svg" viewBox="0 0 148 48"> <path d="M148 0H134.092L120.184 23.988L134.092 47.976H147.988L134.092 24L148 0Z" fill="white" ></path> <path d="M100.039 47.976H72.3638V0H100.039V8.33521H82.5533V18.8689H98.8236V27.2038H82.5533V39.5752H100.039V47.976Z" fill="white" ></path> <path d="M37.9485 47.976V0H48.1177V39.5752H67.5701V47.976H37.9485Z" fill="white" ></path> <path d="M15.3191 0C21.1362 0 25.559 1.25251 28.5882 3.75753C31.6169 6.2625 33.1315 9.99782 33.1315 14.9638C33.1315 20.1272 31.5185 24.0758 28.2931 26.8101C25.067 29.5451 20.4801 30.9121 14.5319 30.9121H10.1691V47.976H0V0H15.3191ZM10.1744 22.5743L13.908 22.5822C22.1656 22.4859 22.8343 17.5771 22.8673 15.6314L22.8669 15.1022C22.8391 13.13 22.3956 8.41194 15.2988 8.33343L10.1744 8.33216V22.5743Z" fill="white" ></path> <path d="M104.838 0H118.746L134.092 24L118.746 48H104.838L120.184 24L104.838 0Z" fill="url(#paint0_radial)" ></path> <defs> <radialGradient cx="0" cy="0" gradientTransform="translate(130.952 15.1454) scale(27.0605 27.0703)" gradientUnits="userSpaceOnUse" id="paint0_radial" r="1" > <stop stop-color="#F9BE03"></stop> <stop offset="1" stop-color="#CC7C19"></stop> </radialGradient> </defs></svg>