<svg height="80.24" viewBox="0 0 211.29 80.24" width="211.29" xmlns="http://www.w3.org/2000/svg"><g fill="#fff"><path d="m43.874 12.699c2.733-3.419 4.586-8.009 4.098-12.699-4 .199-8.883 2.64-11.71 6.06-2.537 2.93-4.784 7.713-4.198 12.206 4.491.39 8.978-2.244 11.81-5.567m4.047 6.445c-6.522-.389-12.067 3.701-15.182 3.701-3.117 0-7.886-3.505-13.045-3.41-6.714.098-12.945 3.894-16.352 9.932-7.008 12.08-1.85 29.996 4.966 39.834 3.31 4.867 7.298 10.226 12.554 10.034 4.965-.195 6.912-3.216 12.947-3.216 6.032 0 7.785 3.216 13.042 3.118 5.45-.097 8.859-4.87 12.168-9.741 3.797-5.548 5.351-10.905 5.449-11.2-.098-.097-10.511-4.092-10.608-16.07-.098-10.03 8.176-14.8 8.565-15.097-4.672-6.91-11.973-7.69-14.504-7.885"/><path d="m89.459 9.913v13.23h10.636v8.73h-10.635v31.117c0 4.816 2.117 7.039 6.773 7.039 1.164 0 3.068-.159 3.81-.265v8.784c-1.27.265-3.81.477-6.297.477-11.007 0-15.293-4.234-15.293-14.923v-32.228h-8.15v-8.732h8.15v-13.23h11.007zm47.864 68.677h-11.68l-19.645-55.44h11.627l13.779 44.553h.264l13.779-44.553h11.416zm51.319 0h-10.095v-22.723h-21.652v-9.99h21.652v-22.727h10.095v22.726h21.65v9.99h-21.65z"/></g></svg>