<svg xmlns="http://www.w3.org/2000/svg" viewBox="0 0 144 56"> <g fill="#FFF"> <path d="M141.334 55.923H2.654c-1.438 0-2.604-1.166-2.604-2.605V2.651C.05 1.213 1.216.047 2.654.045h138.56c1.44.002 2.605 1.167 2.607 2.606v37.074c0 1.339-1.085 2.424-2.424 2.424s-2.424-1.085-2.424-2.424V4.893H4.893v46.182h136.441c1.34 0 2.424 1.085 2.424 2.424s-1.085 2.424-2.424 2.424z"/> <path d="M44.97 39.52V16.47c0-.662.262-1.297.73-1.766.468-.468 1.103-.731 1.766-.731h19.508c1.27 0 2.336 1.043 2.276 2.312-.054 1.175-1.025 2.1-2.202 2.096H49.91c-.007 0-.012.006-.012.013v7.267c-.001.003 0 .007.003.01.002.002.006.003.01.003h15.52c.595.009 1.163.255 1.577.684.414.43.64 1.006.627 1.602-.046 1.192-1.031 2.13-2.224 2.12h-15.5c-.004 0-.008 0-.01.003-.003.003-.004.006-.003.01V37.6c-.001.004 0 .007.003.01.002.002.006.003.01.003h17.263c1.27 0 2.336 1.043 2.276 2.312-.054 1.175-1.024 2.1-2.2 2.096H47.466c-.663 0-1.299-.264-1.767-.733-.468-.47-.73-1.105-.73-1.768zM37.75 41.186c.255-.35.41-.76.452-1.19.041-.383 0-23.457.012-23.809 0-1.339-1.085-2.424-2.424-2.424-1.338 0-2.424 1.085-2.424 2.424v16.87L18.053 14.646c-.154-.184-.332-.345-.53-.48-.64-.42-1.441-.514-2.162-.254-.72.26-1.275.846-1.499 1.579-.066.225-.1.459-.102.694v23.58c0 1.338 1.085 2.423 2.424 2.423s2.424-1.085 2.424-2.424V22.894l15.312 18.41c.11.13.234.251.368.358 1.027.853 2.702.626 3.462-.476zM72.307 28.042v-.08c0-7.741 5.973-14.224 14.421-14.224s14.344 6.4 14.344 14.145v.079c0 7.742-5.973 14.225-14.422 14.225-8.45 0-14.343-6.405-14.343-14.145zm23.695 0v-.08c0-5.344-3.89-9.784-9.352-9.784-5.463 0-9.28 4.361-9.28 9.705v.079c0 5.345 3.89 9.745 9.352 9.745 5.46 0 9.278-4.321 9.278-9.665h.002zM129.653 41.178c.254-.35.41-.76.453-1.19.04-.383 0-23.457.01-23.809 0-1.339-1.084-2.424-2.423-2.424s-2.424 1.085-2.424 2.424v16.87l-15.312-18.412c-.154-.184-.332-.345-.53-.48-.641-.422-1.444-.517-2.166-.256-.722.262-1.279.849-1.501 1.584-.064.226-.099.46-.102.694v23.576c0 1.339 1.085 2.424 2.424 2.424 1.338 0 2.424-1.085 2.424-2.424V22.88l15.312 18.411c.11.131.232.252.366.359 1.035.857 2.709.63 3.469-.472z"/> </g></svg>