<svg xmlns="http://www.w3.org/2000/svg" fill="none" viewBox="0 0 89 32" class="styles_appLogoIcon__2-5SH" aria-hidden="true" focusable="false"><path d="M60.236 8.317c1.87 0 3.552.46 5.045 1.38 1.493.92 2.54 2.157 3.138 3.713.125.283.038.464-.262.542l-2.664.708c-.252.062-.441-.048-.567-.33-.989-1.826-2.544-2.738-4.667-2.738-1.478 0-2.708.518-3.69 1.556-.98 1.037-1.472 2.302-1.473 3.795 0 1.541.491 2.814 1.474 3.82.983 1.004 2.236 1.508 3.76 1.509a5.142 5.142 0 004.574-2.735h-4.29a.508.508 0 01-.39-.162.54.54 0 01-.152-.378V17.23a.523.523 0 01.542-.542h7.193a.567.567 0 01.525.33c.029.067.043.14.04.212v7.379a.507.507 0 01-.165.39.567.567 0 01-.4.153h-2.15a.522.522 0 01-.541-.543V23.17c-1.228 1.541-3.003 2.312-5.327 2.311-2.39 0-4.386-.825-5.989-2.475-1.602-1.65-2.404-3.686-2.404-6.106s.852-4.455 2.557-6.106c1.706-1.652 3.8-2.477 6.283-2.476zm24.576 2.475c1.69 1.651 2.534 3.687 2.535 6.106 0 2.42-.845 4.457-2.535 6.111-1.69 1.65-3.76 2.476-6.212 2.475-2.451 0-4.522-.83-6.213-2.486-1.689-1.66-2.534-3.69-2.534-6.095 0-2.404.845-4.436 2.534-6.096C74.077 9.15 76.148 8.32 78.6 8.32s4.523.823 6.212 2.472zm-2.581 9.879c.958-1.022 1.438-2.28 1.438-3.773 0-1.493-.48-2.75-1.438-3.772-.96-1.023-2.17-1.534-3.63-1.534-1.462 0-2.672.51-3.632 1.532s-1.439 2.28-1.438 3.772c.002 1.493.481 2.75 1.438 3.772.958 1.023 2.168 1.533 3.631 1.532 1.464-.001 2.674-.51 3.63-1.53z" fill="#00AA25"></path><path d="M13.451 15.988L9.595 14.38c-1.126-.489-1.556-.811-1.49-1.206.063-.367.349-.706 1.42-.706h7.94a.428.428 0 00.417-.336l.617-2.916a.427.427 0 00-.417-.517H9.883c-3.895.023-5.464 2.101-5.946 4.292-.61 2.772 1.605 4.055 3.19 4.717l4.23 1.717c1.035.417 1.2.798 1.088 1.225-.12.463-.49.77-1.805.77H2.49a.427.427 0 00-.417.337l-.619 2.915a.428.428 0 00.418.515h8.768c4.025-.036 5.425-2.122 5.927-4.395.634-2.88-1.151-3.972-3.116-4.805zm36.963-7.29h-3.748a.428.428 0 00-.32.144l-6.046 6.84-4.058-6.776a.428.428 0 00-.366-.208h-5.22a.427.427 0 00-.32.144l-7.05 7.98 4.891 8.168a.426.426 0 00.366.208h3.893a.427.427 0 00.366-.646l-4.63-7.73 4.858-5.492 4.821 8.067-2.266 10.65a.429.429 0 00.418.516h3.184a.427.427 0 00.419-.34l2.303-10.834 8.825-9.981a.427.427 0 00-.32-.71z" fill="#fff"></path><path d="M26.025 1.445h-3.312a.427.427 0 00-.418.338l-4.864 22.891a.428.428 0 00.419.517h3.311a.427.427 0 00.419-.339l4.863-22.891a.428.428 0 00-.418-.516z" fill="#fff"></path></svg>