<svg version="1.1" id="图层_1" xmlns="http://www.w3.org/2000/svg" xmlns:xlink="http://www.w3.org/1999/xlink" x="0px" y="0px" viewBox="0 0 188 29" style="enable-background: new 0 0 188 29" xml:space="preserve"> <style type="text/css"> .st0{fill: #ffffff;}</style> <g> <path class="st0" d="M153.9,10.2c-1.4,0-2.6,0.5-3.5,1.5s-1.4,2.2-1.4,3.6s0.5,2.7,1.4,3.6c0.9,0.9,2.1,1.5,3.5,1.5s2.6-0.5,3.5-1.5c0.9-1,1.4-2.2,1.4-3.6s-0.5-2.7-1.4-3.6C156.5,10.8,155.3,10.2,153.9,10.2z M186.8,3.9h-59.3c-0.7,0-1.2,0.6-1.2,1.2v20.4c0,0.7,0.6,1.2,1.2,1.2h59.3c0.7,0,1.2-0.6,1.2-1.2V5.2C188,4.5,187.4,3.9,186.8,3.9z M143.5,22.8c0,0.2-0.1,0.3-0.2,0.4c-0.1,0.1-0.2,0.1-0.4,0.1h-2.6c-0.5,0-0.9-0.2-1.1-0.5l-6.2-10v10.1c0,0.1,0,0.3-0.1,0.4s-0.2,0.1-0.4,0.1h-2.4c-0.3,0-0.5-0.2-0.5-0.4c0,0,0,0,0-0.1v-15c0-0.1,0-0.3,0.1-0.4s0.3-0.1,0.4-0.1h3.1c0.3,0,0.6,0.1,0.7,0.4l6.1,9.8V7.9c0-0.3,0.2-0.5,0.4-0.5c0,0,0,0,0.1,0h2.4c0.1,0,0.3,0.1,0.4,0.1c0.1,0.1,0.2,0.2,0.2,0.4V22.8z M159.9,21.3c-1.6,1.6-3.6,2.4-6,2.4s-4.4-0.8-6-2.4s-2.5-3.6-2.5-5.9s0.8-4.3,2.5-5.9c1.6-1.6,3.6-2.4,6-2.4s4.4,0.8,6,2.4s2.4,3.6,2.5,5.9C162.3,17.7,161.5,19.7,159.9,21.3z M185,8.2l-3.6,14.7c0,0.2-0.2,0.3-0.3,0.4s-0.2,0.1-0.3,0.1h-3.6c-0.3,0-0.6-0.2-0.6-0.5L174,12.7l-2.5,10.2c-0.1,0.3-0.3,0.5-0.6,0.5H167c-0.3,0-0.6-0.2-0.6-0.5l-3.7-14.7c-0.1-0.2,0-0.4,0.1-0.6s0.2-0.2,0.4-0.2h2.7c0.3,0,0.5,0.2,0.5,0.4c0,0,0,0,0,0.1l2.6,11.4l2.8-11.4c0.1-0.3,0.3-0.5,0.5-0.5h3.1c0.3,0,0.5,0.2,0.5,0.4c0,0,0,0,0,0.1l2.8,11.3l2.6-11.3c0.1-0.3,0.2-0.5,0.5-0.5h2.6C185,7.4,185.1,7.6,185,8.2L185,8.2z M57.5,14l-3-0.8c-1.1-0.3-1.6-0.8-1.6-1.5c0-0.5,0.2-0.9,0.7-1.2s1-0.4,1.7-0.4c1.1,0,2.2,0.4,3.3,1.3c0.5,0.4,0.9,0.4,1.3,0l1.1-1.1c0.4-0.4,0.3-0.8-0.1-1.2c-0.5-0.5-1.3-1-2.3-1.3c-1-0.4-2-0.5-3.2-0.5c-1.8,0-3.3,0.5-4.4,1.4c-1.2,0.9-1.7,2.1-1.7,3.5c0,1.1,0.3,2.1,1,2.8c0.7,0.8,1.6,1.3,2.9,1.6l2.7,0.7c0.8,0.2,1.3,0.4,1.7,0.7s0.6,0.7,0.6,1.1c0,0.5-0.2,0.8-0.7,1.2s-1.1,0.5-1.9,0.5c-1.4,0-2.7-0.5-3.8-1.6c-0.4-0.4-0.8-0.5-1.2-0.2l-1.4,1.1c-0.2,0.2-0.3,0.4-0.3,0.7s0.2,0.5,0.4,0.7c0.6,0.6,1.4,1.2,2.5,1.6c1.1,0.4,2.3,0.7,3.7,0.7c2,0,3.6-0.5,4.7-1.5s1.7-2.2,1.7-3.5C61.9,16.3,60.4,14.8,57.5,14z M74.5,9c-1-1-2.4-1.5-4.1-1.5h-6.2c-0.1,0-0.3,0-0.4,0.1S63.7,7.8,63.7,8v14.8c0,0.1,0,0.3,0.1,0.4s0.2,0.2,0.4,0.1h2.4c0.1,0,0.3-0.1,0.4-0.1c0.1-0.1,0.2-0.2,0.1-0.4V18h3.3c1.7,0,3.1-0.5,4.1-1.5s1.5-2.3,1.5-3.8C75.9,11.3,75.4,10,74.5,9z M71.7,14.4c-0.5,0.4-1,0.6-1.7,0.7h-2.9v-4.6H70c0.7,0,1.3,0.2,1.7,0.6c0.5,0.4,0.7,1,0.7,1.7C72.4,13.4,72.2,14,71.7,14.4z M91.2,9.5c-1.6-1.6-3.6-2.4-6-2.4s-4.3,0.8-6,2.4c-1.6,1.6-2.4,3.5-2.4,5.9s0.8,4.3,2.4,5.9s3.6,2.4,6,2.4s4.3-0.8,6-2.4c1.6-1.6,2.4-3.5,2.4-5.9S92.8,11.1,91.2,9.5z M88.7,19c-0.9,1-2.1,1.5-3.5,1.5S82.6,20,81.7,19c-0.9-1-1.4-2.2-1.4-3.6s0.5-2.6,1.4-3.6s2.1-1.5,3.5-1.5s2.6,0.5,3.5,1.5s1.4,2.2,1.4,3.6S89.6,18,88.7,19z M108.9,22.7l-3.6-5.8c0.7-0.2,1.4-0.7,1.9-1.2c0.5-0.6,0.8-1.1,1-1.7c0.2-0.5,0.3-1.1,0.3-1.7c0-1.4-0.5-2.5-1.5-3.5c-1-0.9-2.3-1.4-4-1.4h-7.1c-0.2,0-0.3,0.1-0.4,0.2c-0.1,0.1-0.1,0.2-0.1,0.3v14.8c0,0.1,0,0.3,0.1,0.4s0.2,0.2,0.4,0.1h2.4c0.1,0,0.3,0,0.4-0.1s0.2-0.2,0.1-0.4v-5.3h3l3.3,5.4c0.2,0.3,0.5,0.5,0.9,0.5h2.6c0.2,0,0.3-0.1,0.4-0.2C109,23,109,22.8,108.9,22.7L108.9,22.7z M104.2,14.1c-0.4,0.4-1,0.6-1.7,0.6h-3.8v-4.2h3.8c0.6,0,1.2,0.2,1.7,0.6c0.4,0.4,0.7,0.9,0.7,1.5S104.6,13.7,104.2,14.1z M122.6,7.6c-0.1-0.1-0.2-0.2-0.4-0.1h-12.5c-0.1,0-0.3,0.1-0.4,0.1c-0.1,0.1-0.2,0.2-0.1,0.4v2.1c0,0.1,0,0.3,0.1,0.4s0.2,0.1,0.4,0.1h4.5v12.2c0,0.1,0,0.3,0.1,0.4s0.2,0.2,0.4,0.1h2.5c0.1,0,0.3,0,0.4-0.1s0.2-0.2,0.1-0.4V10.6h4.5c0.1,0,0.3-0.1,0.4-0.1c0.1-0.1,0.2-0.2,0.1-0.4V8C122.7,7.9,122.7,7.7,122.6,7.6z M11.6,14.5L7.9,13c-1.1-0.5-1.5-0.8-1.4-1.2s0.3-0.7,1.4-0.7h7.6c0.2,0,0.4-0.1,0.4-0.3L16.5,8c0.1-0.2-0.1-0.4-0.3-0.5H8.1c-3.8,0-5.3,2-5.7,4.1c-0.6,2.7,1.5,3.9,3.1,4.5l4.1,1.7c1,0.4,1.2,0.8,1,1.2c-0.1,0.4-0.5,0.7-1.7,0.7H1c-0.2,0-0.4,0.1-0.4,0.3L0,22.9c0,0.2,0.1,0.4,0.3,0.5h8.6c3.9,0,5.2-2,5.7-4.2C15.2,16.3,13.5,15.3,11.6,14.5z M47.2,7.5h-3.6c-0.1,0-0.2,0.1-0.3,0.1l-5.8,6.6l-3.9-6.5c-0.1-0.1-0.2-0.2-0.4-0.2h-5c-0.1,0-0.2,0.1-0.3,0.1L21,15.3l4.7,7.9c0.1,0.1,0.2,0.2,0.4,0.2h3.7c0.2,0,0.4-0.2,0.4-0.4c0-0.1,0-0.1-0.1-0.2l-4.5-7.4l4.7-5.3l4.6,7.8l-2.2,10.3c0,0.2,0.1,0.4,0.3,0.5h3.2c0.2,0,0.4-0.1,0.4-0.3L39,17.8l8.5-9.6c0.2-0.2,0.1-0.4,0-0.6C47.4,7.5,47.3,7.5,47.2,7.5z"/> <path class="st0" d="M23.7,0.5h-3.2c-0.2,0-0.4,0.1-0.4,0.3l-4.7,22.1c0,0.2,0.1,0.4,0.3,0.5H19c0.2,0,0.4-0.1,0.4-0.3L24.1,1C24.1,0.7,24,0.5,23.7,0.5z"/> </g></svg>