<?xml version="1.0" encoding="UTF-8"?>
<svg viewBox="0 0 243 32" version="1.1" xmlns="http://www.w3.org/2000/svg" xmlns:xlink="http://www.w3.org/1999/xlink">
    <title>threenow-horizontal</title>
    <g id="threenow-horizontal" stroke="none" stroke-width="1" fill="none" fill-rule="evenodd">
        <g id="ThreeNow_Horizontal_Watermelon" transform="translate(0.000000, -0.000000)" fill="#FF004F" fill-rule="nonzero">
            <polygon id="Path" points="43.0478416 0.90321991 43.0478416 8.85240122 36.1626407 8.85240122 36.1626407 0.90321991 28.6301674 0.90321991 28.6301674 23.4287207 36.1626407 23.4287207 36.1626407 15.3505079 43.0478416 15.3505079 43.0478416 23.4287207 50.5781997 23.4287207 50.5781997 0.90321991"></polygon>
            <path d="M77.5880709,16.5921709 L77.5880709,16.5265976 C77.5880709,14.1998015 76.8794558,12.5350847 75.5277988,11.185543 C73.9519233,9.60966756 71.4093699,8.60914527 67.4199723,8.60914527 L56.420573,8.60914527 L56.420573,31.1367613 L63.9488157,31.1367613 L63.9488157,24.7021127 L65.5564202,24.7021127 L69.8059959,31.1367613 L78.398219,31.1367613 L73.1502363,23.4752566 C75.8873946,22.1595592 77.5923015,19.8792991 77.5923015,16.5921709 M70.0957877,17.1379103 C70.0957877,18.5212963 69.0000783,19.3272139 67.1978691,19.3272139 L63.9445852,19.3272139 L63.9445852,14.9168778 L67.2253676,14.9168778 C68.9641188,14.9168778 70.0915572,15.6254929 70.0915572,17.072337 L70.0957877,17.1379103 Z" id="Shape"></path>
            <polygon id="Path" points="7.53670384 8.51607343 7.53670384 15.9237459 0 15.9237459 0 23.3779542 7.53670384 23.3779542 7.53670384 31.134646 15.633954 31.134646 15.633954 23.3779542 23.1706578 23.3779542 23.1706578 15.9237459 15.633954 15.9237459 15.633954 8.51607343"></polygon>
            <polygon id="Path" points="114.753349 24.955945 114.753349 22.5128091 125.756979 22.5128091 125.756979 17.072337 114.753349 17.072337 114.753349 14.7878463 126.560781 14.7878463 126.560781 8.61126054 107.349907 8.61126054 107.349907 31.134646 126.723657 31.134646 126.723657 24.955945"></polygon>
            <polygon id="Path" points="101.708485 16.247382 82.3368501 16.247382 82.3368501 17.2500196 82.3368501 23.4287207 101.708485 23.4287207 101.708485 17.2500196"></polygon>
            <polygon id="Path" points="82.3368501 0.90321991 82.3368501 7.08192098 82.3368501 8.08244327 101.708485 8.08244327 101.708485 7.08192098 101.708485 0.90321991"></polygon>
            <path d="M231.184107,0.848222913 L227.67276,17.6180764 L223.31319,0.848222913 L214.837307,0.848222913 L210.479853,17.6180764 L206.968506,0.848222913 L195.163189,0.848222913 L197.913039,10.3098216 C195.628548,4.17554122 189.701564,0 182.636565,0 C174.947562,0 168.605985,4.94972972 166.841851,11.978769 C166.317264,3.74191105 161.856162,0 155.933408,0 C152.422061,0 149.636252,1.33261954 147.819236,3.8074844 L147.819236,0.846107644 L136.618886,0.846107644 L136.618886,31.1156086 L147.817121,31.1156086 L147.817121,15.5599196 C147.817121,12.5985428 149.211083,10.7772961 151.93555,10.7772961 C154.234847,10.7772961 155.688037,12.1078004 155.688037,14.832267 L155.688037,31.1198391 L166.888387,31.1198391 L166.888387,20.169091 C168.735017,27.1071736 175.106207,31.9765231 182.63022,31.9765231 C191.71107,31.9765231 198.917792,25.0744 198.917792,15.9935497 C198.917504,14.8374854 198.795557,13.684661 198.553965,12.5541222 L203.950017,31.1177239 L215.33228,31.1177239 L219.086883,16.8904238 L222.83937,31.1177239 L234.221633,31.1177239 L243,0.848222913 L231.184107,0.848222913 Z M182.63022,21.309221 C179.668843,21.309221 177.553574,19.1304938 177.553574,15.9829734 C177.553574,12.835453 179.668843,10.6546105 182.63022,10.6546105 C185.591596,10.6546105 187.706865,12.835453 187.706865,15.9829734 C187.706865,19.1304938 185.591596,21.309221 182.63022,21.309221" id="Shape"></path>
        </g>
    </g>
</svg>