<svg version="1.1" id="Layer_1" xmlns="http://www.w3.org/2000/svg" xmlns:xlink="http://www.w3.org/1999/xlink" x="0px" y="0px" viewBox="0 0 104 45.2" style="enable-background: new 0 0 104 45.2" xml:space="preserve"> <style type="text/css"> .st0{fill: #ffffff;}.st1{fill: url(#SVGID_1_);}.st2{fill: none;}.st3{fill: url(#SVGID_2_);}.st4{fill: url(#SVGID_3_);}.st5{fill: url(#SVGID_4_);}</style> <g> <g> <g> <path class="st0" d="M103.9,28.5c-0.1-0.1-0.2-0.2-0.4-0.2l-7.2,0l6.5-7.2c0.5-0.6,0.8-1.3,0.8-2c0-1.7-1.4-3-3-3l-11.6,0c-0.1,0-0.1,0.1-0.1,0.1v2.1l-0.2-0.2c-0.3-0.3-0.5-0.5-0.8-0.8c-0.8-0.6-1.7-1.1-2.7-1.4c-1-0.3-2.1-0.5-3.3-0.5c-1.2,0-2.3,0.2-3.3,0.5c-1,0.3-1.9,0.8-2.7,1.4c-0.3,0.2-0.6,0.5-0.8,0.8l-0.2,0.2v-2.1c0-0.1-0.1-0.1-0.1-0.1h-2.4c-0.1,0-1.8,0-2.6,2c-0.8,2.1-4.1,9-4.1,9l-0.1,0.2l-0.1-0.2c0-0.1-3-7.5-3.6-9c-0.5-1.5-2.1-2-2.5-2h-5.5v-3.9c0-0.2-0.2-0.4-0.4-0.4h-4.4c-0.2,0-0.4,0.2-0.4,0.4v3.9H46c-0.2,0-0.3,0.1-0.4,0.2c-0.1,0.1-0.1,0.3,0,0.4l1.8,3.8c0.1,0.2,0.3,0.4,0.6,0.4h0.7v6.6c0,1.8,0.6,3.3,1.8,4.4c1.2,1.1,2.8,1.6,4.9,1.6c0.7,0,1.4-0.1,2.1-0.2c0.7-0.1,1.3-0.3,1.8-0.5c0.3-0.1,0.6-0.2,0.8-0.3c0.1-0.1,0.2-0.2,0.3-0.3c0-0.1,0-0.3,0-0.4l-1.5-3.2c-0.1-0.1-0.2-0.2-0.3-0.1c-0.6,0.2-1.3,0.3-1.9,0.3c-0.3,0-0.6,0-0.9-0.1c-0.3-0.1-0.6-0.2-0.8-0.4c-0.2-0.2-0.5-0.4-0.6-0.8s-0.2-0.7-0.2-1.3v-5.4h3.4c0.1,0,0.1,0,0.3,0.5c0.1,0.3,0.3,0.7,0.6,1.2c0.4,0.9,1,2.1,1.7,3.6c1.2,2.6,2.6,5.5,3.1,6.6c0.1,0.2,0.2,0.2,0.4,0.2h4.3c0.2,0,0.3-0.1,0.4-0.2l5.5-11.6l-0.1,0.5c0,0.3-0.1,0.7-0.1,1v9.9c0,0.2,0.2,0.4,0.4,0.4h4.2c0.2,0,0.4-0.2,0.4-0.4v-8.7c0-2.4,1.1-3.6,3.3-3.6c1,0,1.8,0.3,2.4,0.9c0.6,0.6,0.8,1.5,0.8,2.7v8.6c0,0.2,0.2,0.4,0.4,0.4h16.3c0.2,0,0.4-0.1,0.5-0.3l1.7-3.7C104,28.8,104,28.6,103.9,28.5z M90.1,20.8h7l-7,7.3V20.8z"/> </g> </g> <g> <g> <path class="st0" d="M14.6,30.7V17.2c0-0.6,0.7-0.9,1.1-0.5l8,6.7c0.3,0.3,0.3,0.8,0,1l-8,6.7C15.3,31.6,14.6,31.3,14.6,30.7z"/> </g> <linearGradient id="SVGID_1_" gradientUnits="userSpaceOnUse" x1="39.0577" y1="33.7267" x2="3.1666" y2="11.4733" > <stop offset="0" style="stop-color: #52f5ff"/> <stop offset="1" style="stop-color: #124595"/> </linearGradient> <path class="st1" d="M21.1,1.5C9.5,1.5,0,10.9,0,22.6c0,11.7,9.5,21.1,21.1,21.1c11.7,0,21.1-9.5,21.1-21.1C42.2,10.9,32.8,1.5,21.1,1.5z M21.5,41.2c-9.9,0-17.9-8-17.9-17.9c0-9.9,8-17.9,17.9-17.9s17.9,8,17.9,17.9C39.3,33.2,31.3,41.2,21.5,41.2z"/> <g> <path class="st2" d="M21.1,1.5C9.5,1.5,0,10.9,0,22.6c0,11.7,9.5,21.1,21.1,21.1c11.7,0,21.1-9.5,21.1-21.1C42.2,10.9,32.8,1.5,21.1,1.5z M18,36.3c-6.8,0-12.3-5.5-12.3-12.3c0-6.8,5.5-12.3,12.3-12.3c6.8,0,12.3,5.5,12.3,12.3C30.3,30.8,24.8,36.3,18,36.3z"/> </g> <path class="st2" d="M30.3,24c0,6.8-5.5,12.3-12.3,12.3c-2.9,0-5.6-1-7.7-2.7c2.4,4,6.8,6.7,11.9,6.7c7.6,0,13.8-6.2,13.8-13.8c0-7.5-5.9-13.6-13.4-13.8C27.1,14.5,30.3,18.9,30.3,24z"/> <path class="st2" d="M30.3,24c0,4.4-2.3,8.2-5.7,10.4c0.4,0,0.8,0.1,1.2,0.1c8.1,0,14.7-6.6,14.7-14.7c0-8.1-6.6-14.7-14.7-14.7c-5.6,0-10.5,3.2-13,7.8c1.6-0.7,3.4-1.2,5.2-1.2C24.8,11.7,30.3,17.2,30.3,24z"/> <linearGradient id="SVGID_2_" gradientUnits="userSpaceOnUse" x1="14.7753" y1="7.1655" x2="36.6952" y2="32.6497" > <stop offset="9.139785e-02" style="stop-color: #51dad3"/> <stop offset="0.6237" style="stop-color: #33a4ff"/> <stop offset="1" style="stop-color: #124595"/> </linearGradient> <path class="st3" d="M25,3.8c-7.6,0-14.1,5.1-16.1,12c1.1-1.2,2.4-2.2,3.9-2.9c2.5-4.7,7.4-7.8,13-7.8c8.1,0,14.7,6.6,14.7,14.7c0,8.1-6.6,14.7-14.7,14.7c-0.4,0-0.8,0-1.2-0.1c-1.6,1-3.5,1.7-5.6,1.9c1.9,0.7,3.9,1.1,6,1.1c9.3,0,16.8-7.5,16.8-16.8S34.2,3.8,25,3.8z"/> <linearGradient id="SVGID_3_" gradientUnits="userSpaceOnUse" x1="12.5577" y1="39.3592" x2="35.2099" y2="16.7071" > <stop offset="0" style="stop-color: #52f5ff"/> <stop offset="1" style="stop-color: #124595"/> </linearGradient> <path class="st4" d="M23.1,11.2c-1.4,0-2.8,0.2-4.1,0.5c1.3,0.1,2.5,0.4,3.6,0.9C30.1,12.9,36,19,36,26.5c0,7.6-6.2,13.8-13.8,13.8c-5,0-9.4-2.7-11.9-6.7c-1.2-0.9-2.1-2.1-2.9-3.4c1.4,7.4,7.9,13,15.7,13c8.8,0,16-7.2,16-16S32,11.2,23.1,11.2z"/> <linearGradient id="SVGID_4_" gradientUnits="userSpaceOnUse" x1="30.4189" y1="33.6535" x2="3.1768" y2="16.7627" > <stop offset="0" style="stop-color: #52f5ff"/> <stop offset="0.8441" style="stop-color: #124595"/> </linearGradient> <path class="st5" d="M16.8,9.2c-8.9,0-16,7.2-16,16c0,8.9,7.2,16,16,16s16-7.2,16-16C32.8,16.4,25.6,9.2,16.8,9.2z M18,36.3c-6.8,0-12.3-5.5-12.3-12.3S11.2,11.7,18,11.7c6.8,0,12.3,5.5,12.3,12.3S24.8,36.3,18,36.3z"/> </g> </g></svg>